<mxfile host="app.diagrams.net" agent="Mozilla/5.0 (Windows NT 10.0; Win64; x64) AppleWebKit/537.36 (KHTML, like Gecko) Chrome/129.0.0.0 Safari/537.36" version="24.7.7">
  <diagram name="第 1 页" id="VfhWVpGSwwKwey4LlDqN">
    <mxGraphModel dx="1405" dy="515" grid="1" gridSize="10" guides="1" tooltips="1" connect="1" arrows="1" fold="1" page="0" pageScale="1" pageWidth="827" pageHeight="1169" math="0" shadow="0">
      <root>
        <mxCell id="0" />
        <mxCell id="1" parent="0" />
        <mxCell id="26ukSBBFdo2j1dYNBKcc-4" style="edgeStyle=orthogonalEdgeStyle;rounded=0;orthogonalLoop=1;jettySize=auto;html=1;exitX=0;exitY=0.5;exitDx=0;exitDy=0;startArrow=classic;startFill=1;endArrow=none;endFill=0;" parent="1" source="26ukSBBFdo2j1dYNBKcc-1" edge="1">
          <mxGeometry relative="1" as="geometry">
            <mxPoint x="180" y="440.1428571428571" as="targetPoint" />
          </mxGeometry>
        </mxCell>
        <mxCell id="26ukSBBFdo2j1dYNBKcc-5" value="clk_i" style="edgeLabel;html=1;align=center;verticalAlign=middle;resizable=0;points=[];" parent="26ukSBBFdo2j1dYNBKcc-4" vertex="1" connectable="0">
          <mxGeometry x="0.1199" y="1" relative="1" as="geometry">
            <mxPoint y="-12" as="offset" />
          </mxGeometry>
        </mxCell>
        <mxCell id="26ukSBBFdo2j1dYNBKcc-6" style="edgeStyle=orthogonalEdgeStyle;rounded=0;orthogonalLoop=1;jettySize=auto;html=1;exitX=1;exitY=0.5;exitDx=0;exitDy=0;" parent="1" source="26ukSBBFdo2j1dYNBKcc-1" target="26ukSBBFdo2j1dYNBKcc-2" edge="1">
          <mxGeometry relative="1" as="geometry" />
        </mxCell>
        <mxCell id="26ukSBBFdo2j1dYNBKcc-7" value="spi_clk" style="edgeLabel;html=1;align=center;verticalAlign=middle;resizable=0;points=[];" parent="26ukSBBFdo2j1dYNBKcc-6" vertex="1" connectable="0">
          <mxGeometry x="-0.1984" relative="1" as="geometry">
            <mxPoint x="4" y="-10" as="offset" />
          </mxGeometry>
        </mxCell>
        <mxCell id="26ukSBBFdo2j1dYNBKcc-1" value="时钟分频器" style="rounded=1;whiteSpace=wrap;html=1;" parent="1" vertex="1">
          <mxGeometry x="300" y="410" width="120" height="60" as="geometry" />
        </mxCell>
        <mxCell id="26ukSBBFdo2j1dYNBKcc-2" value="" style="rounded=1;whiteSpace=wrap;html=1;" parent="1" vertex="1">
          <mxGeometry x="540" y="410" width="120" height="60" as="geometry" />
        </mxCell>
        <mxCell id="26ukSBBFdo2j1dYNBKcc-10" style="edgeStyle=orthogonalEdgeStyle;rounded=0;orthogonalLoop=1;jettySize=auto;html=1;exitX=0;exitY=0.5;exitDx=0;exitDy=0;endArrow=none;endFill=0;startArrow=classic;startFill=1;" parent="1" source="26ukSBBFdo2j1dYNBKcc-3" edge="1">
          <mxGeometry relative="1" as="geometry">
            <mxPoint x="230" y="440" as="targetPoint" />
          </mxGeometry>
        </mxCell>
        <mxCell id="26ukSBBFdo2j1dYNBKcc-3" value="" style="rounded=1;whiteSpace=wrap;html=1;" parent="1" vertex="1">
          <mxGeometry x="300" y="520" width="120" height="60" as="geometry" />
        </mxCell>
        <mxCell id="26ukSBBFdo2j1dYNBKcc-17" style="edgeStyle=orthogonalEdgeStyle;rounded=0;orthogonalLoop=1;jettySize=auto;html=1;exitX=0;exitY=0.25;exitDx=0;exitDy=0;entryX=1;entryY=0.25;entryDx=0;entryDy=0;" parent="1" source="26ukSBBFdo2j1dYNBKcc-11" target="26ukSBBFdo2j1dYNBKcc-12" edge="1">
          <mxGeometry relative="1" as="geometry" />
        </mxCell>
        <mxCell id="26ukSBBFdo2j1dYNBKcc-18" value="spi_busy_o" style="edgeLabel;html=1;align=center;verticalAlign=middle;resizable=0;points=[];" parent="26ukSBBFdo2j1dYNBKcc-17" vertex="1" connectable="0">
          <mxGeometry x="0.2815" y="1" relative="1" as="geometry">
            <mxPoint x="13" y="-11" as="offset" />
          </mxGeometry>
        </mxCell>
        <mxCell id="26ukSBBFdo2j1dYNBKcc-19" style="edgeStyle=orthogonalEdgeStyle;rounded=0;orthogonalLoop=1;jettySize=auto;html=1;exitX=1;exitY=0.25;exitDx=0;exitDy=0;" parent="1" source="26ukSBBFdo2j1dYNBKcc-11" edge="1">
          <mxGeometry relative="1" as="geometry">
            <mxPoint x="640" y="840.1428571428571" as="targetPoint" />
          </mxGeometry>
        </mxCell>
        <mxCell id="26ukSBBFdo2j1dYNBKcc-20" value="Text" style="edgeLabel;html=1;align=center;verticalAlign=middle;resizable=0;points=[];" parent="26ukSBBFdo2j1dYNBKcc-19" vertex="1" connectable="0">
          <mxGeometry x="-0.0499" y="-1" relative="1" as="geometry">
            <mxPoint as="offset" />
          </mxGeometry>
        </mxCell>
        <mxCell id="26ukSBBFdo2j1dYNBKcc-11" value="spi_tx" style="rounded=1;whiteSpace=wrap;html=1;" parent="1" vertex="1">
          <mxGeometry x="405" y="810" width="120" height="120" as="geometry" />
        </mxCell>
        <mxCell id="26ukSBBFdo2j1dYNBKcc-13" style="edgeStyle=orthogonalEdgeStyle;rounded=0;orthogonalLoop=1;jettySize=auto;html=1;entryX=0;entryY=0.5;entryDx=0;entryDy=0;" parent="1" source="26ukSBBFdo2j1dYNBKcc-12" target="26ukSBBFdo2j1dYNBKcc-11" edge="1">
          <mxGeometry relative="1" as="geometry" />
        </mxCell>
        <mxCell id="26ukSBBFdo2j1dYNBKcc-15" value="spi_tx_req" style="edgeLabel;html=1;align=center;verticalAlign=middle;resizable=0;points=[];" parent="26ukSBBFdo2j1dYNBKcc-13" vertex="1" connectable="0">
          <mxGeometry x="0.0106" relative="1" as="geometry">
            <mxPoint x="-1" y="-10" as="offset" />
          </mxGeometry>
        </mxCell>
        <mxCell id="26ukSBBFdo2j1dYNBKcc-14" style="edgeStyle=orthogonalEdgeStyle;rounded=0;orthogonalLoop=1;jettySize=auto;html=1;exitX=1;exitY=0.75;exitDx=0;exitDy=0;entryX=0;entryY=0.75;entryDx=0;entryDy=0;" parent="1" source="26ukSBBFdo2j1dYNBKcc-12" target="26ukSBBFdo2j1dYNBKcc-11" edge="1">
          <mxGeometry relative="1" as="geometry" />
        </mxCell>
        <mxCell id="26ukSBBFdo2j1dYNBKcc-16" value="spi_mosi_o" style="edgeLabel;html=1;align=center;verticalAlign=middle;resizable=0;points=[];" parent="26ukSBBFdo2j1dYNBKcc-14" vertex="1" connectable="0">
          <mxGeometry x="0.2011" y="1" relative="1" as="geometry">
            <mxPoint x="-9" y="-9" as="offset" />
          </mxGeometry>
        </mxCell>
        <mxCell id="26ukSBBFdo2j1dYNBKcc-12" value="spi_tx_master" style="rounded=1;whiteSpace=wrap;html=1;" parent="1" vertex="1">
          <mxGeometry x="195" y="810" width="120" height="120" as="geometry" />
        </mxCell>
        <mxCell id="26ukSBBFdo2j1dYNBKcc-21" value="" style="rounded=1;whiteSpace=wrap;html=1;" parent="1" vertex="1">
          <mxGeometry x="210" y="1070" width="360" height="250" as="geometry" />
        </mxCell>
        <mxCell id="26ukSBBFdo2j1dYNBKcc-22" value="spi_tx" style="rounded=1;whiteSpace=wrap;html=1;" parent="1" vertex="1">
          <mxGeometry x="330" y="1100" width="120" height="190" as="geometry" />
        </mxCell>
      </root>
    </mxGraphModel>
  </diagram>
</mxfile>
